<svg width="20" height="20" viewBox="0 0 20 20" xmlns="http://www.w3.org/2000/svg">
    <path d="M15.833 18.333H4.167c-.92 0-1.667-.746-1.667-1.666V5c0-.92.746-1.667 1.667-1.667h1.666V1.667H7.5v1.666h5V1.667h1.667v1.666h1.666c.92 0 1.667.747 1.667 1.667v11.667c0 .92-.746 1.666-1.667 1.666zm-11.666-10v8.334h11.666V8.333H4.167zm0-3.333v1.667h11.666V5H4.167zm10 10H12.5v-1.667h1.667V15zm-3.334 0H9.167v-1.667h1.666V15zM7.5 15H5.833v-1.667H7.5V15zm6.667-3.333H12.5V10h1.667v1.667zm-3.334 0H9.167V10h1.666v1.667zm-3.333 0H5.833V10H7.5v1.667z" fill="#2E3A59" fill-rule="nonzero"/>
</svg>
