<svg width="24" height="24" viewBox="0 0 24 24" xmlns="http://www.w3.org/2000/svg">
    <g fill="none" fill-rule="evenodd">
        <path d="M12 0c6.627 0 12 5.373 12 12s-5.373 12-12 12S0 18.627 0 12 5.373 0 12 0" fill="#F2F2F2"/>
        <path fill="#28292B" d="m3.202 7.737 2.512-2.641.562.583-2.512 2.642zM4.01 8.596 6.52 5.953l.563.584-2.512 2.642zM4.793 9.418l2.512-2.642.563.583-2.513 2.642zM17.574 15.13l.986-1.038.563.584-.988 1.041zM16.61 17.317l-.563-.583.967-1.017.56.585zM18.39 15.98l.978-1.029.562.584-.98 1.031zM17.42 18.175l-.563-.584.973-1.025.56.586zM19.738 17.384l-.561-.586.974-1.025.561.584zM18.203 18.999l-.561-.584.976-1.028.561.584zM19.805 6.596l.993 1.032-.558.588-.996-1.034zM17.712 5.588l.56-.587.972 1.01-.56.585zM16.892 6.434l.559-.588 2.525 2.624-.558.588zM17.648 8.857l.561-.585.981 1.017-.559.588zM16.104 7.254l.558-.588.985 1.021-.561.586zM4.825 14.639l.56-.588 2.527 2.627-.558.587zM6.106 16.5l.984 1.021-.558.588-.987-1.023zM4.006 15.485l.558-.588.98 1.017-.56.585zM3.217 16.304l.558-.587 2.529 2.623-.559.587z"/>
        <path d="M16.282 12a4.37 4.37 0 0 1-4.27 4.464A4.37 4.37 0 0 1 7.74 12a4.37 4.37 0 0 1 4.27-4.465A4.371 4.371 0 0 1 16.282 12" fill="#2E4593"/>
        <path d="M16.26 12c.001.209-.013.417-.043.624-.123-.884-.585-2.48-2.335-2.51a1.833 1.833 0 0 0-1.987 1.295c-.39 1.013-.433 2.25-2.15 2.25a1.92 1.92 0 0 1-2.025-1.59 4.605 4.605 0 0 1 .5-2.166 4.252 4.252 0 0 1 3.773-2.37A4.372 4.372 0 0 1 16.26 12z" fill="#DB2E2E"/>
    </g>
</svg>
